  0
SECTION
  2
BLOCKS
  0
ENDSEC
  0
SECTION
  2
ENTITIES
  0
LINE
  8
0
 10
46.1125
 20
-73.4238
 11
47.116
 21
-72.9125
  0
LINE
  8
0
 10
47.116
 20
-72.9125
 11
47.9125
 21
-72.116
  0
LINE
  8
0
 10
47.9125
 20
-72.116
 11
48.4238
 21
-71.1125
  0
LINE
  8
0
 10
48.4238
 20
-71.1125
 11
48.6
 21
-70
  0
LINE
  8
0
 10
48.6
 20
-70
 11
48.6
 21
90
  0
LINE
  8
0
 10
48.6
 20
90
 11
48.4238
 21
91.1125
  0
LINE
  8
0
 10
48.4238
 20
91.1125
 11
47.9125
 21
92.116
  0
LINE
  8
0
 10
47.9125
 20
92.116
 11
47.116
 21
92.9125
  0
LINE
  8
0
 10
47.116
 20
92.9125
 11
46.1125
 21
93.4238
  0
LINE
  8
0
 10
46.1125
 20
93.4238
 11
45
 21
93.6
  0
LINE
  8
0
 10
45
 20
93.6
 11
-45
 21
93.6
  0
LINE
  8
0
 10
-45
 20
93.6
 11
-46.1125
 21
93.4238
  0
LINE
  8
0
 10
-46.1125
 20
93.4238
 11
-47.116
 21
92.9125
  0
LINE
  8
0
 10
-47.116
 20
92.9125
 11
-47.9125
 21
92.116
  0
LINE
  8
0
 10
-47.9125
 20
92.116
 11
-48.4238
 21
91.1125
  0
LINE
  8
0
 10
-48.4238
 20
91.1125
 11
-48.6
 21
90
  0
LINE
  8
0
 10
-48.6
 20
90
 11
-48.6
 21
-70
  0
LINE
  8
0
 10
-48.6
 20
-70
 11
-48.4238
 21
-71.1125
  0
LINE
  8
0
 10
-48.4238
 20
-71.1125
 11
-47.9125
 21
-72.116
  0
LINE
  8
0
 10
-47.9125
 20
-72.116
 11
-47.116
 21
-72.9125
  0
LINE
  8
0
 10
-47.116
 20
-72.9125
 11
-46.1125
 21
-73.4238
  0
LINE
  8
0
 10
-46.1125
 20
-73.4238
 11
-45
 21
-73.6
  0
LINE
  8
0
 10
-45
 20
-73.6
 11
45
 21
-73.6
  0
LINE
  8
0
 10
45
 20
-73.6
 11
46.1125
 21
-73.4238
  0
LINE
  8
0
 10
24.0729
 20
72.1468
 11
23.2366
 21
72.5729
  0
LINE
  8
0
 10
23.2366
 20
72.5729
 11
22.5729
 21
73.2366
  0
LINE
  8
0
 10
22.5729
 20
73.2366
 11
22.1468
 21
74.0729
  0
LINE
  8
0
 10
22.1468
 20
74.0729
 11
22
 21
75
  0
LINE
  8
0
 10
22
 20
75
 11
22.1468
 21
75.927
  0
LINE
  8
0
 10
22.1468
 20
75.927
 11
22.5729
 21
76.7634
  0
LINE
  8
0
 10
22.5729
 20
76.7634
 11
23.2366
 21
77.427
  0
LINE
  8
0
 10
23.2366
 20
77.427
 11
24.0729
 21
77.8532
  0
LINE
  8
0
 10
24.0729
 20
77.8532
 11
25
 21
78
  0
LINE
  8
0
 10
25
 20
78
 11
25.927
 21
77.8532
  0
LINE
  8
0
 10
25.927
 20
77.8532
 11
26.7634
 21
77.427
  0
LINE
  8
0
 10
26.7634
 20
77.427
 11
27.427
 21
76.7634
  0
LINE
  8
0
 10
27.427
 20
76.7634
 11
27.8532
 21
75.927
  0
LINE
  8
0
 10
27.8532
 20
75.927
 11
28
 21
75
  0
LINE
  8
0
 10
28
 20
75
 11
27.8532
 21
74.0729
  0
LINE
  8
0
 10
27.8532
 20
74.0729
 11
27.427
 21
73.2366
  0
LINE
  8
0
 10
27.427
 20
73.2366
 11
26.7634
 21
72.5729
  0
LINE
  8
0
 10
26.7634
 20
72.5729
 11
25.927
 21
72.1468
  0
LINE
  8
0
 10
25.927
 20
72.1468
 11
25
 21
72
  0
LINE
  8
0
 10
25
 20
72
 11
24.0729
 21
72.1468
  0
LINE
  8
0
 10
-25.927
 20
72.1468
 11
-26.7634
 21
72.5729
  0
LINE
  8
0
 10
-26.7634
 20
72.5729
 11
-27.427
 21
73.2366
  0
LINE
  8
0
 10
-27.427
 20
73.2366
 11
-27.8532
 21
74.0729
  0
LINE
  8
0
 10
-27.8532
 20
74.0729
 11
-28
 21
75
  0
LINE
  8
0
 10
-28
 20
75
 11
-27.8532
 21
75.927
  0
LINE
  8
0
 10
-27.8532
 20
75.927
 11
-27.427
 21
76.7634
  0
LINE
  8
0
 10
-27.427
 20
76.7634
 11
-26.7634
 21
77.427
  0
LINE
  8
0
 10
-26.7634
 20
77.427
 11
-25.927
 21
77.8532
  0
LINE
  8
0
 10
-25.927
 20
77.8532
 11
-25
 21
78
  0
LINE
  8
0
 10
-25
 20
78
 11
-24.0729
 21
77.8532
  0
LINE
  8
0
 10
-24.0729
 20
77.8532
 11
-23.2366
 21
77.427
  0
LINE
  8
0
 10
-23.2366
 20
77.427
 11
-22.5729
 21
76.7634
  0
LINE
  8
0
 10
-22.5729
 20
76.7634
 11
-22.1468
 21
75.927
  0
LINE
  8
0
 10
-22.1468
 20
75.927
 11
-22
 21
75
  0
LINE
  8
0
 10
-22
 20
75
 11
-22.1468
 21
74.0729
  0
LINE
  8
0
 10
-22.1468
 20
74.0729
 11
-22.5729
 21
73.2366
  0
LINE
  8
0
 10
-22.5729
 20
73.2366
 11
-23.2366
 21
72.5729
  0
LINE
  8
0
 10
-23.2366
 20
72.5729
 11
-24.0729
 21
72.1468
  0
LINE
  8
0
 10
-24.0729
 20
72.1468
 11
-25
 21
72
  0
LINE
  8
0
 10
-25
 20
72
 11
-25.927
 21
72.1468
  0
LINE
  8
0
 10
-0.927048
 20
72.1468
 11
-1.76335
 21
72.5729
  0
LINE
  8
0
 10
-1.76335
 20
72.5729
 11
-2.42705
 21
73.2366
  0
LINE
  8
0
 10
-2.42705
 20
73.2366
 11
-2.85316
 21
74.0729
  0
LINE
  8
0
 10
-2.85316
 20
74.0729
 11
-3
 21
75
  0
LINE
  8
0
 10
-3
 20
75
 11
-2.85316
 21
75.927
  0
LINE
  8
0
 10
-2.85316
 20
75.927
 11
-2.42705
 21
76.7634
  0
LINE
  8
0
 10
-2.42705
 20
76.7634
 11
-1.76335
 21
77.427
  0
LINE
  8
0
 10
-1.76335
 20
77.427
 11
-0.927048
 21
77.8532
  0
LINE
  8
0
 10
-0.927048
 20
77.8532
 11
0
 21
78
  0
LINE
  8
0
 10
0
 20
78
 11
0.927048
 21
77.8532
  0
LINE
  8
0
 10
0.927048
 20
77.8532
 11
1.76335
 21
77.427
  0
LINE
  8
0
 10
1.76335
 20
77.427
 11
2.42705
 21
76.7634
  0
LINE
  8
0
 10
2.42705
 20
76.7634
 11
2.85316
 21
75.927
  0
LINE
  8
0
 10
2.85316
 20
75.927
 11
3
 21
75
  0
LINE
  8
0
 10
3
 20
75
 11
2.85316
 21
74.0729
  0
LINE
  8
0
 10
2.85316
 20
74.0729
 11
2.42705
 21
73.2366
  0
LINE
  8
0
 10
2.42705
 20
73.2366
 11
1.76335
 21
72.5729
  0
LINE
  8
0
 10
1.76335
 20
72.5729
 11
0.927048
 21
72.1468
  0
LINE
  8
0
 10
0.927048
 20
72.1468
 11
0
 21
72
  0
LINE
  8
0
 10
0
 20
72
 11
-0.927048
 21
72.1468
  0
LINE
  8
0
 10
41.4592
 20
73.3356
 11
40.9714
 21
73.5842
  0
LINE
  8
0
 10
40.9714
 20
73.5842
 11
40.5842
 21
73.9714
  0
LINE
  8
0
 10
40.5842
 20
73.9714
 11
40.3356
 21
74.4592
  0
LINE
  8
0
 10
40.3356
 20
74.4592
 11
40.25
 21
75
  0
LINE
  8
0
 10
40.25
 20
75
 11
40.3356
 21
75.5408
  0
LINE
  8
0
 10
40.3356
 20
75.5408
 11
40.5842
 21
76.0286
  0
LINE
  8
0
 10
40.5842
 20
76.0286
 11
40.9714
 21
76.4158
  0
LINE
  8
0
 10
40.9714
 20
76.4158
 11
41.4592
 21
76.6643
  0
LINE
  8
0
 10
41.4592
 20
76.6643
 11
42
 21
76.75
  0
LINE
  8
0
 10
42
 20
76.75
 11
42.5408
 21
76.6643
  0
LINE
  8
0
 10
42.5408
 20
76.6643
 11
43.0286
 21
76.4158
  0
LINE
  8
0
 10
43.0286
 20
76.4158
 11
43.4158
 21
76.0286
  0
LINE
  8
0
 10
43.4158
 20
76.0286
 11
43.6643
 21
75.5408
  0
LINE
  8
0
 10
43.6643
 20
75.5408
 11
43.75
 21
75
  0
LINE
  8
0
 10
43.75
 20
75
 11
43.6643
 21
74.4592
  0
LINE
  8
0
 10
43.6643
 20
74.4592
 11
43.4158
 21
73.9714
  0
LINE
  8
0
 10
43.4158
 20
73.9714
 11
43.0286
 21
73.5842
  0
LINE
  8
0
 10
43.0286
 20
73.5842
 11
42.5408
 21
73.3356
  0
LINE
  8
0
 10
42.5408
 20
73.3356
 11
42
 21
73.25
  0
LINE
  8
0
 10
42
 20
73.25
 11
41.4592
 21
73.3356
  0
LINE
  8
0
 10
-42.5408
 20
73.3356
 11
-43.0286
 21
73.5842
  0
LINE
  8
0
 10
-43.0286
 20
73.5842
 11
-43.4158
 21
73.9714
  0
LINE
  8
0
 10
-43.4158
 20
73.9714
 11
-43.6643
 21
74.4592
  0
LINE
  8
0
 10
-43.6643
 20
74.4592
 11
-43.75
 21
75
  0
LINE
  8
0
 10
-43.75
 20
75
 11
-43.6643
 21
75.5408
  0
LINE
  8
0
 10
-43.6643
 20
75.5408
 11
-43.4158
 21
76.0286
  0
LINE
  8
0
 10
-43.4158
 20
76.0286
 11
-43.0286
 21
76.4158
  0
LINE
  8
0
 10
-43.0286
 20
76.4158
 11
-42.5408
 21
76.6643
  0
LINE
  8
0
 10
-42.5408
 20
76.6643
 11
-42
 21
76.75
  0
LINE
  8
0
 10
-42
 20
76.75
 11
-41.4592
 21
76.6643
  0
LINE
  8
0
 10
-41.4592
 20
76.6643
 11
-40.9714
 21
76.4158
  0
LINE
  8
0
 10
-40.9714
 20
76.4158
 11
-40.5842
 21
76.0286
  0
LINE
  8
0
 10
-40.5842
 20
76.0286
 11
-40.3356
 21
75.5408
  0
LINE
  8
0
 10
-40.3356
 20
75.5408
 11
-40.25
 21
75
  0
LINE
  8
0
 10
-40.25
 20
75
 11
-40.3356
 21
74.4592
  0
LINE
  8
0
 10
-40.3356
 20
74.4592
 11
-40.5842
 21
73.9714
  0
LINE
  8
0
 10
-40.5842
 20
73.9714
 11
-40.9714
 21
73.5842
  0
LINE
  8
0
 10
-40.9714
 20
73.5842
 11
-41.4592
 21
73.3356
  0
LINE
  8
0
 10
-41.4592
 20
73.3356
 11
-42
 21
73.25
  0
LINE
  8
0
 10
-42
 20
73.25
 11
-42.5408
 21
73.3356
  0
LINE
  8
0
 10
-19.6058
 20
49.8664
 11
-12.4184
 21
58.6431
  0
LINE
  8
0
 10
-12.4184
 20
58.6431
 11
-11.5762
 21
59.0072
  0
LINE
  8
0
 10
-11.5762
 20
59.0072
 11
-9.97055
 21
61.2793
  0
LINE
  8
0
 10
-9.97055
 20
61.2793
 11
-9.53842
 21
61.0614
  0
LINE
  8
0
 10
-9.53842
 20
61.0614
 11
-10.5624
 21
59.4453
  0
LINE
  8
0
 10
-10.5624
 20
59.4453
 11
-10.483
 21
58.2366
  0
LINE
  8
0
 10
-10.483
 20
58.2366
 11
-13.4006
 21
54.8848
  0
LINE
  8
0
 10
-13.4006
 20
54.8848
 11
-10.8337
 21
54.8306
  0
LINE
  8
0
 10
-10.8337
 20
54.8306
 11
-11.697
 21
53.5907
  0
LINE
  8
0
 10
-11.697
 20
53.5907
 11
-16.6374
 21
48.9328
  0
LINE
  8
0
 10
-16.6374
 20
48.9328
 11
-19.6058
 21
49.8664
  0
LINE
  8
0
 10
-39.6584
 20
51.8764
 11
-36.2091
 21
52.9249
  0
LINE
  8
0
 10
-36.2091
 20
52.9249
 11
-23.4874
 21
59.2395
  0
LINE
  8
0
 10
-23.4874
 20
59.2395
 11
-21.6449
 21
57.9102
  0
LINE
  8
0
 10
-21.6449
 20
57.9102
 11
-23.2375
 21
57.0214
  0
LINE
  8
0
 10
-23.2375
 20
57.0214
 11
-24.24
 21
57.1686
  0
LINE
  8
0
 10
-24.24
 20
57.1686
 11
-31.9427
 21
53.0039
  0
LINE
  8
0
 10
-31.9427
 20
53.0039
 11
-25.7412
 21
52.6649
  0
LINE
  8
0
 10
-25.7412
 20
52.6649
 11
-24.6874
 21
52.9478
  0
LINE
  8
0
 10
-24.6874
 20
52.9478
 11
-23.0518
 21
51.4919
  0
LINE
  8
0
 10
-23.0518
 20
51.4919
 11
-23.9664
 21
50.548
  0
LINE
  8
0
 10
-23.9664
 20
50.548
 11
-37.0395
 21
50.5361
  0
LINE
  8
0
 10
-37.0395
 20
50.5361
 11
-39.6584
 21
51.8764
  0
LINE
  8
0
 10
28.0387
 20
51.8013
 11
26.4878
 21
48.8824
  0
LINE
  8
0
 10
26.4878
 20
48.8824
 11
25.2621
 21
49.8815
  0
LINE
  8
0
 10
25.2621
 20
49.8815
 11
28.0955
 21
55.5106
  0
LINE
  8
0
 10
28.0955
 20
55.5106
 11
29.8766
 21
55.3183
  0
LINE
  8
0
 10
29.8766
 20
55.3183
 11
29.0936
 21
53.5237
  0
LINE
  8
0
 10
29.0936
 20
53.5237
 11
37.6014
 21
57.5353
  0
LINE
  8
0
 10
37.6014
 20
57.5353
 11
36.4407
 21
55.8084
  0
LINE
  8
0
 10
36.4407
 20
55.8084
 11
30.518
 21
52.6161
  0
LINE
  8
0
 10
30.518
 20
52.6161
 11
32.2719
 21
51.6354
  0
LINE
  8
0
 10
32.2719
 20
51.6354
 11
32.8493
 21
50.3141
  0
LINE
  8
0
 10
32.8493
 20
50.3141
 11
39.9113
 21
46.4357
  0
LINE
  8
0
 10
39.9113
 20
46.4357
 11
40.115
 21
45.1805
  0
LINE
  8
0
 10
40.115
 20
45.1805
 11
28.0387
 21
51.8013
  0
LINE
  8
0
 10
15.4186
 20
48.7451
 11
15.7267
 21
49.569
  0
LINE
  8
0
 10
15.7267
 20
49.569
 11
13.5338
 21
48.1168
  0
LINE
  8
0
 10
13.5338
 20
48.1168
 11
12.5269
 21
49.028
  0
LINE
  8
0
 10
12.5269
 20
49.028
 11
13.5915
 21
51.5546
  0
LINE
  8
0
 10
13.5915
 20
51.5546
 11
14.9785
 21
52.0494
  0
LINE
  8
0
 10
14.9785
 20
52.0494
 11
14.4843
 21
50.0717
  0
LINE
  8
0
 10
14.4843
 20
50.0717
 11
16.902
 21
51.6743
  0
LINE
  8
0
 10
16.902
 20
51.6743
 11
19.8363
 21
56.3105
  0
LINE
  8
0
 10
19.8363
 20
56.3105
 11
19.6369
 21
54.4673
  0
LINE
  8
0
 10
19.6369
 20
54.4673
 11
19.9269
 21
53.8549
  0
LINE
  8
0
 10
19.9269
 20
53.8549
 11
16.8063
 21
48.1065
  0
LINE
  8
0
 10
16.8063
 20
48.1065
 11
15.4186
 21
48.7451
  0
LINE
  8
0
 10
4.61929
 20
50.1364
 11
3.63945
 21
51.0513
  0
LINE
  8
0
 10
3.63945
 20
51.0513
 11
5.21027
 21
51.7185
  0
LINE
  8
0
 10
5.21027
 20
51.7185
 11
6.93352
 21
54.923
  0
LINE
  8
0
 10
6.93352
 20
54.923
 11
16.1586
 21
55.4531
  0
LINE
  8
0
 10
16.1586
 20
55.4531
 11
16.0078
 21
53.5031
  0
LINE
  8
0
 10
16.0078
 20
53.5031
 11
6.58699
 21
50.3781
  0
LINE
  8
0
 10
6.58699
 20
50.3781
 11
4.30183
 21
45.8602
  0
LINE
  8
0
 10
4.30183
 20
45.8602
 11
2.66968
 21
44.6852
  0
LINE
  8
0
 10
2.66968
 20
44.6852
 11
1.90544
 21
43.1954
  0
LINE
  8
0
 10
1.90544
 20
43.1954
 11
1.04599
 21
42.8502
  0
LINE
  8
0
 10
1.04599
 20
42.8502
 11
4.61929
 21
50.1364
  0
LINE
  8
0
 10
-28.0513
 20
43.8307
 11
-21.7271
 21
51.7968
  0
LINE
  8
0
 10
-21.7271
 20
51.7968
 11
-22.5954
 21
52.3454
  0
LINE
  8
0
 10
-22.5954
 20
52.3454
 11
-22.9104
 21
54.7024
  0
LINE
  8
0
 10
-22.9104
 20
54.7024
 11
-21.508
 21
55.438
  0
LINE
  8
0
 10
-21.508
 20
55.438
 11
-21.5822
 21
53.1039
  0
LINE
  8
0
 10
-21.5822
 20
53.1039
 11
-19.1226
 21
55.0414
  0
LINE
  8
0
 10
-19.1226
 20
55.0414
 11
-17.0407
 21
54.9922
  0
LINE
  8
0
 10
-17.0407
 20
54.9922
 11
-24.0607
 21
46.4141
  0
LINE
  8
0
 10
-24.0607
 20
46.4141
 11
-25.8378
 21
45.6387
  0
LINE
  8
0
 10
-25.8378
 20
45.6387
 11
-27.7261
 21
43.5753
  0
LINE
  8
0
 10
-27.7261
 20
43.5753
 11
-28.0513
 21
43.8307
  0
LINE
  8
0
 10
-12.6478
 20
50.1895
 11
-9.1832
 21
55.3053
  0
LINE
  8
0
 10
-9.1832
 20
55.3053
 11
-4.4101
 21
55.2584
  0
LINE
  8
0
 10
-4.4101
 20
55.2584
 11
-5.26978
 21
54.2387
  0
LINE
  8
0
 10
-5.26978
 20
54.2387
 11
-7.93259
 21
54.1936
  0
LINE
  8
0
 10
-7.93259
 20
54.1936
 11
-8.81149
 21
53.1716
  0
LINE
  8
0
 10
-8.81149
 20
53.1716
 11
-5.47188
 21
53.2456
  0
LINE
  8
0
 10
-5.47188
 20
53.2456
 11
-6.0743
 21
52.1211
  0
LINE
  8
0
 10
-6.0743
 20
52.1211
 11
-9.53659
 21
51.7805
  0
LINE
  8
0
 10
-9.53659
 20
51.7805
 11
-10.2926
 21
50.6455
  0
LINE
  8
0
 10
-10.2926
 20
50.6455
 11
-6.20384
 21
50.8668
  0
LINE
  8
0
 10
-6.20384
 20
50.8668
 11
-6.96327
 21
49.4608
  0
LINE
  8
0
 10
-6.96327
 20
49.4608
 11
-11.5736
 21
49.3246
  0
LINE
  8
0
 10
-11.5736
 20
49.3246
 11
-12.6478
 21
50.1895
  0
LINE
  8
0
 10
-5.95825
 20
48.9099
 11
-3.00911
 21
55.2206
  0
LINE
  8
0
 10
-3.00911
 20
55.2206
 11
3.84956
 21
54.8629
  0
LINE
  8
0
 10
3.84956
 20
54.8629
 11
4.71703
 21
53.6734
  0
LINE
  8
0
 10
4.71703
 20
53.6734
 11
0.254288
 21
51.9373
  0
LINE
  8
0
 10
0.254288
 20
51.9373
 11
3.12424
 21
49.6244
  0
LINE
  8
0
 10
3.12424
 20
49.6244
 11
2.35039
 21
48.4656
  0
LINE
  8
0
 10
2.35039
 20
48.4656
 11
-3.19679
 21
51.1531
  0
LINE
  8
0
 10
-3.19679
 20
51.1531
 11
-4.96513
 21
47.5011
  0
LINE
  8
0
 10
-4.96513
 20
47.5011
 11
-5.95825
 21
48.9099
  0
LINE
  8
0
 10
21.5852
 20
54.9594
 11
22.2631
 21
54.558
  0
LINE
  8
0
 10
22.2631
 20
54.558
 11
23.0207
 21
51.6766
  0
LINE
  8
0
 10
23.0207
 20
51.6766
 11
24.7581
 21
54.6891
  0
LINE
  8
0
 10
24.7581
 20
54.6891
 11
26.4207
 21
54.7052
  0
LINE
  8
0
 10
26.4207
 20
54.7052
 11
23.486
 21
49.3436
  0
LINE
  8
0
 10
23.486
 20
49.3436
 11
22.2615
 21
49.3907
  0
LINE
  8
0
 10
22.2615
 20
49.3907
 11
21.6971
 21
51.6722
  0
LINE
  8
0
 10
21.6971
 20
51.6722
 11
20.4012
 21
49.4699
  0
LINE
  8
0
 10
20.4012
 20
49.4699
 11
18.6202
 21
49.342
  0
LINE
  8
0
 10
18.6202
 20
49.342
 11
21.5852
 21
54.9594
  0
LINE
  8
0
 10
-37
 20
23
 11
-37
 21
37
  0
LINE
  8
0
 10
-37
 20
37
 11
-23
 21
37
  0
LINE
  8
0
 10
-23
 20
37
 11
-23
 21
23
  0
LINE
  8
0
 10
-23
 20
23
 11
-37
 21
23
  0
LINE
  8
0
 10
-17
 20
23
 11
-17
 21
37
  0
LINE
  8
0
 10
-17
 20
37
 11
-3
 21
37
  0
LINE
  8
0
 10
-3
 20
37
 11
-3
 21
23
  0
LINE
  8
0
 10
-3
 20
23
 11
-17
 21
23
  0
LINE
  8
0
 10
3
 20
23
 11
3
 21
37
  0
LINE
  8
0
 10
3
 20
37
 11
17
 21
37
  0
LINE
  8
0
 10
17
 20
37
 11
17
 21
23
  0
LINE
  8
0
 10
17
 20
23
 11
3
 21
23
  0
LINE
  8
0
 10
23
 20
23
 11
23
 21
37
  0
LINE
  8
0
 10
23
 20
37
 11
37
 21
37
  0
LINE
  8
0
 10
37
 20
37
 11
37
 21
23
  0
LINE
  8
0
 10
37
 20
23
 11
23
 21
23
  0
LINE
  8
0
 10
23
 20
3
 11
23
 21
17
  0
LINE
  8
0
 10
23
 20
17
 11
37
 21
17
  0
LINE
  8
0
 10
37
 20
17
 11
37
 21
3
  0
LINE
  8
0
 10
37
 20
3
 11
23
 21
3
  0
LINE
  8
0
 10
-37
 20
3
 11
-37
 21
17
  0
LINE
  8
0
 10
-37
 20
17
 11
-23
 21
17
  0
LINE
  8
0
 10
-23
 20
17
 11
-23
 21
3
  0
LINE
  8
0
 10
-23
 20
3
 11
-37
 21
3
  0
LINE
  8
0
 10
-17
 20
3
 11
-17
 21
17
  0
LINE
  8
0
 10
-17
 20
17
 11
-3
 21
17
  0
LINE
  8
0
 10
-3
 20
17
 11
-3
 21
3
  0
LINE
  8
0
 10
-3
 20
3
 11
-17
 21
3
  0
LINE
  8
0
 10
3
 20
3
 11
3
 21
17
  0
LINE
  8
0
 10
3
 20
17
 11
17
 21
17
  0
LINE
  8
0
 10
17
 20
17
 11
17
 21
3
  0
LINE
  8
0
 10
17
 20
3
 11
3
 21
3
  0
LINE
  8
0
 10
3
 20
-17
 11
3
 21
-3
  0
LINE
  8
0
 10
3
 20
-3
 11
17
 21
-3
  0
LINE
  8
0
 10
17
 20
-3
 11
17
 21
-17
  0
LINE
  8
0
 10
17
 20
-17
 11
3
 21
-17
  0
LINE
  8
0
 10
-37
 20
-17
 11
-37
 21
-3
  0
LINE
  8
0
 10
-37
 20
-3
 11
-23
 21
-3
  0
LINE
  8
0
 10
-23
 20
-3
 11
-23
 21
-17
  0
LINE
  8
0
 10
-23
 20
-17
 11
-37
 21
-17
  0
LINE
  8
0
 10
-17
 20
-17
 11
-17
 21
-3
  0
LINE
  8
0
 10
-17
 20
-3
 11
-3
 21
-3
  0
LINE
  8
0
 10
-3
 20
-3
 11
-3
 21
-17
  0
LINE
  8
0
 10
-3
 20
-17
 11
-17
 21
-17
  0
LINE
  8
0
 10
23
 20
-17
 11
23
 21
-3
  0
LINE
  8
0
 10
23
 20
-3
 11
37
 21
-3
  0
LINE
  8
0
 10
37
 20
-3
 11
37
 21
-17
  0
LINE
  8
0
 10
37
 20
-17
 11
23
 21
-17
  0
LINE
  8
0
 10
-37
 20
-37
 11
-37
 21
-23
  0
LINE
  8
0
 10
-37
 20
-23
 11
-23
 21
-23
  0
LINE
  8
0
 10
-23
 20
-23
 11
-23
 21
-37
  0
LINE
  8
0
 10
-23
 20
-37
 11
-37
 21
-37
  0
LINE
  8
0
 10
-17
 20
-37
 11
-17
 21
-23
  0
LINE
  8
0
 10
-17
 20
-23
 11
-3
 21
-23
  0
LINE
  8
0
 10
-3
 20
-23
 11
-3
 21
-37
  0
LINE
  8
0
 10
-3
 20
-37
 11
-17
 21
-37
  0
LINE
  8
0
 10
3
 20
-37
 11
3
 21
-23
  0
LINE
  8
0
 10
3
 20
-23
 11
17
 21
-23
  0
LINE
  8
0
 10
17
 20
-23
 11
17
 21
-37
  0
LINE
  8
0
 10
17
 20
-37
 11
3
 21
-37
  0
LINE
  8
0
 10
23
 20
-37
 11
23
 21
-23
  0
LINE
  8
0
 10
23
 20
-23
 11
37
 21
-23
  0
LINE
  8
0
 10
37
 20
-23
 11
37
 21
-37
  0
LINE
  8
0
 10
37
 20
-37
 11
23
 21
-37
  0
LINE
  8
0
 10
-1.16432
 20
-59.1044
 11
-0.792999
 21
-58.4002
  0
LINE
  8
0
 10
-0.792999
 20
-58.4002
 11
-0.980072
 21
-53.7652
  0
LINE
  8
0
 10
-0.980072
 20
-53.7652
 11
-4.2411
 21
-51.4497
  0
LINE
  8
0
 10
-4.2411
 20
-51.4497
 11
-2.06024
 21
-49.5718
  0
LINE
  8
0
 10
-2.06024
 20
-49.5718
 11
-4.42566
 21
-47.8671
  0
LINE
  8
0
 10
-4.42566
 20
-47.8671
 11
-0.998077
 21
-45.7614
  0
LINE
  8
0
 10
-0.998077
 20
-45.7614
 11
-0.906677
 21
-44.4488
  0
LINE
  8
0
 10
-0.906677
 20
-44.4488
 11
-0.154648
 21
-43.46
  0
LINE
  8
0
 10
-0.154648
 20
-43.46
 11
-0.125427
 21
-53.2549
  0
LINE
  8
0
 10
-0.125427
 20
-53.2549
 11
4.40445
 21
-56.3651
  0
LINE
  8
0
 10
4.40445
 20
-56.3651
 11
1.83807
 21
-58.7704
  0
LINE
  8
0
 10
1.83807
 20
-58.7704
 11
5.27344
 21
-63.0354
  0
LINE
  8
0
 10
5.27344
 20
-63.0354
 11
2.22054
 21
-60.2668
  0
LINE
  8
0
 10
2.22054
 20
-60.2668
 11
0.726395
 21
-58.802
  0
LINE
  8
0
 10
0.726395
 20
-58.802
 11
2.76985
 21
-56.5005
  0
LINE
  8
0
 10
2.76985
 20
-56.5005
 11
0.0201416
 21
-54.5052
  0
LINE
  8
0
 10
0.0201416
 20
-54.5052
 11
0.0870514
 21
-65.7726
  0
LINE
  8
0
 10
0.0870514
 20
-65.7726
 11
-0.283508
 21
-66.5391
  0
LINE
  8
0
 10
-0.283508
 20
-66.5391
 11
-1.16432
 21
-59.1044
  0
LINE
  8
0
 10
-20.927
 20
-57.8532
 11
-21.7634
 21
-57.427
  0
LINE
  8
0
 10
-21.7634
 20
-57.427
 11
-22.427
 21
-56.7634
  0
LINE
  8
0
 10
-22.427
 20
-56.7634
 11
-22.8532
 21
-55.927
  0
LINE
  8
0
 10
-22.8532
 20
-55.927
 11
-23
 21
-55
  0
LINE
  8
0
 10
-23
 20
-55
 11
-22.8532
 21
-54.0729
  0
LINE
  8
0
 10
-22.8532
 20
-54.0729
 11
-22.427
 21
-53.2366
  0
LINE
  8
0
 10
-22.427
 20
-53.2366
 11
-21.7634
 21
-52.5729
  0
LINE
  8
0
 10
-21.7634
 20
-52.5729
 11
-20.927
 21
-52.1468
  0
LINE
  8
0
 10
-20.927
 20
-52.1468
 11
-20
 21
-52
  0
LINE
  8
0
 10
-20
 20
-52
 11
-19.0729
 21
-52.1468
  0
LINE
  8
0
 10
-19.0729
 20
-52.1468
 11
-18.2366
 21
-52.5729
  0
LINE
  8
0
 10
-18.2366
 20
-52.5729
 11
-17.5729
 21
-53.2366
  0
LINE
  8
0
 10
-17.5729
 20
-53.2366
 11
-17.1468
 21
-54.0729
  0
LINE
  8
0
 10
-17.1468
 20
-54.0729
 11
-17
 21
-55
  0
LINE
  8
0
 10
-17
 20
-55
 11
-17.1468
 21
-55.927
  0
LINE
  8
0
 10
-17.1468
 20
-55.927
 11
-17.5729
 21
-56.7634
  0
LINE
  8
0
 10
-17.5729
 20
-56.7634
 11
-18.2366
 21
-57.427
  0
LINE
  8
0
 10
-18.2366
 20
-57.427
 11
-19.0729
 21
-57.8532
  0
LINE
  8
0
 10
-19.0729
 20
-57.8532
 11
-20
 21
-58
  0
LINE
  8
0
 10
-20
 20
-58
 11
-20.927
 21
-57.8532
  0
LINE
  8
0
 10
19.0729
 20
-57.8532
 11
18.2366
 21
-57.427
  0
LINE
  8
0
 10
18.2366
 20
-57.427
 11
17.5729
 21
-56.7634
  0
LINE
  8
0
 10
17.5729
 20
-56.7634
 11
17.1468
 21
-55.927
  0
LINE
  8
0
 10
17.1468
 20
-55.927
 11
17
 21
-55
  0
LINE
  8
0
 10
17
 20
-55
 11
17.1468
 21
-54.0729
  0
LINE
  8
0
 10
17.1468
 20
-54.0729
 11
17.5729
 21
-53.2366
  0
LINE
  8
0
 10
17.5729
 20
-53.2366
 11
18.2366
 21
-52.5729
  0
LINE
  8
0
 10
18.2366
 20
-52.5729
 11
19.0729
 21
-52.1468
  0
LINE
  8
0
 10
19.0729
 20
-52.1468
 11
20
 21
-52
  0
LINE
  8
0
 10
20
 20
-52
 11
20.927
 21
-52.1468
  0
LINE
  8
0
 10
20.927
 20
-52.1468
 11
21.7634
 21
-52.5729
  0
LINE
  8
0
 10
21.7634
 20
-52.5729
 11
22.427
 21
-53.2366
  0
LINE
  8
0
 10
22.427
 20
-53.2366
 11
22.8532
 21
-54.0729
  0
LINE
  8
0
 10
22.8532
 20
-54.0729
 11
23
 21
-55
  0
LINE
  8
0
 10
23
 20
-55
 11
22.8532
 21
-55.927
  0
LINE
  8
0
 10
22.8532
 20
-55.927
 11
22.427
 21
-56.7634
  0
LINE
  8
0
 10
22.427
 20
-56.7634
 11
21.7634
 21
-57.427
  0
LINE
  8
0
 10
21.7634
 20
-57.427
 11
20.927
 21
-57.8532
  0
LINE
  8
0
 10
20.927
 20
-57.8532
 11
20
 21
-58
  0
LINE
  8
0
 10
20
 20
-58
 11
19.0729
 21
-57.8532
  0
LINE
  8
0
 10
41.4592
 20
-56.6643
 11
40.9714
 21
-56.4158
  0
LINE
  8
0
 10
40.9714
 20
-56.4158
 11
40.5842
 21
-56.0286
  0
LINE
  8
0
 10
40.5842
 20
-56.0286
 11
40.3356
 21
-55.5408
  0
LINE
  8
0
 10
40.3356
 20
-55.5408
 11
40.25
 21
-55
  0
LINE
  8
0
 10
40.25
 20
-55
 11
40.3356
 21
-54.4592
  0
LINE
  8
0
 10
40.3356
 20
-54.4592
 11
40.5842
 21
-53.9714
  0
LINE
  8
0
 10
40.5842
 20
-53.9714
 11
40.9714
 21
-53.5842
  0
LINE
  8
0
 10
40.9714
 20
-53.5842
 11
41.4592
 21
-53.3356
  0
LINE
  8
0
 10
41.4592
 20
-53.3356
 11
42
 21
-53.25
  0
LINE
  8
0
 10
42
 20
-53.25
 11
42.5408
 21
-53.3356
  0
LINE
  8
0
 10
42.5408
 20
-53.3356
 11
43.0286
 21
-53.5842
  0
LINE
  8
0
 10
43.0286
 20
-53.5842
 11
43.4158
 21
-53.9714
  0
LINE
  8
0
 10
43.4158
 20
-53.9714
 11
43.6643
 21
-54.4592
  0
LINE
  8
0
 10
43.6643
 20
-54.4592
 11
43.75
 21
-55
  0
LINE
  8
0
 10
43.75
 20
-55
 11
43.6643
 21
-55.5408
  0
LINE
  8
0
 10
43.6643
 20
-55.5408
 11
43.4158
 21
-56.0286
  0
LINE
  8
0
 10
43.4158
 20
-56.0286
 11
43.0286
 21
-56.4158
  0
LINE
  8
0
 10
43.0286
 20
-56.4158
 11
42.5408
 21
-56.6643
  0
LINE
  8
0
 10
42.5408
 20
-56.6643
 11
42
 21
-56.75
  0
LINE
  8
0
 10
42
 20
-56.75
 11
41.4592
 21
-56.6643
  0
LINE
  8
0
 10
-42.5408
 20
-56.6643
 11
-43.0286
 21
-56.4158
  0
LINE
  8
0
 10
-43.0286
 20
-56.4158
 11
-43.4158
 21
-56.0286
  0
LINE
  8
0
 10
-43.4158
 20
-56.0286
 11
-43.6643
 21
-55.5408
  0
LINE
  8
0
 10
-43.6643
 20
-55.5408
 11
-43.75
 21
-55
  0
LINE
  8
0
 10
-43.75
 20
-55
 11
-43.6643
 21
-54.4592
  0
LINE
  8
0
 10
-43.6643
 20
-54.4592
 11
-43.4158
 21
-53.9714
  0
LINE
  8
0
 10
-43.4158
 20
-53.9714
 11
-43.0286
 21
-53.5842
  0
LINE
  8
0
 10
-43.0286
 20
-53.5842
 11
-42.5408
 21
-53.3356
  0
LINE
  8
0
 10
-42.5408
 20
-53.3356
 11
-42
 21
-53.25
  0
LINE
  8
0
 10
-42
 20
-53.25
 11
-41.4592
 21
-53.3356
  0
LINE
  8
0
 10
-41.4592
 20
-53.3356
 11
-40.9714
 21
-53.5842
  0
LINE
  8
0
 10
-40.9714
 20
-53.5842
 11
-40.5842
 21
-53.9714
  0
LINE
  8
0
 10
-40.5842
 20
-53.9714
 11
-40.3356
 21
-54.4592
  0
LINE
  8
0
 10
-40.3356
 20
-54.4592
 11
-40.25
 21
-55
  0
LINE
  8
0
 10
-40.25
 20
-55
 11
-40.3356
 21
-55.5408
  0
LINE
  8
0
 10
-40.3356
 20
-55.5408
 11
-40.5842
 21
-56.0286
  0
LINE
  8
0
 10
-40.5842
 20
-56.0286
 11
-40.9714
 21
-56.4158
  0
LINE
  8
0
 10
-40.9714
 20
-56.4158
 11
-41.4592
 21
-56.6643
  0
LINE
  8
0
 10
-41.4592
 20
-56.6643
 11
-42
 21
-56.75
  0
LINE
  8
0
 10
-42
 20
-56.75
 11
-42.5408
 21
-56.6643
  0
ENDSEC
  0
SECTION
  2
OBJECTS
  0
DICTIONARY
  0
ENDSEC
  0
EOF
