  0
SECTION
  2
BLOCKS
  0
ENDSEC
  0
SECTION
  2
ENTITIES
  0
LINE
  8
0
 10
46.1125
 20
-73.4238
 11
47.116
 21
-72.9125
  0
LINE
  8
0
 10
47.116
 20
-72.9125
 11
47.9125
 21
-72.116
  0
LINE
  8
0
 10
47.9125
 20
-72.116
 11
48.4238
 21
-71.1125
  0
LINE
  8
0
 10
48.4238
 20
-71.1125
 11
48.6
 21
-70
  0
LINE
  8
0
 10
48.6
 20
-70
 11
48.6
 21
90
  0
LINE
  8
0
 10
48.6
 20
90
 11
48.4238
 21
91.1125
  0
LINE
  8
0
 10
48.4238
 20
91.1125
 11
47.9125
 21
92.116
  0
LINE
  8
0
 10
47.9125
 20
92.116
 11
47.116
 21
92.9125
  0
LINE
  8
0
 10
47.116
 20
92.9125
 11
46.1125
 21
93.4238
  0
LINE
  8
0
 10
46.1125
 20
93.4238
 11
45
 21
93.6
  0
LINE
  8
0
 10
45
 20
93.6
 11
-45
 21
93.6
  0
LINE
  8
0
 10
-45
 20
93.6
 11
-46.1125
 21
93.4238
  0
LINE
  8
0
 10
-46.1125
 20
93.4238
 11
-47.116
 21
92.9125
  0
LINE
  8
0
 10
-47.116
 20
92.9125
 11
-47.9125
 21
92.116
  0
LINE
  8
0
 10
-47.9125
 20
92.116
 11
-48.4238
 21
91.1125
  0
LINE
  8
0
 10
-48.4238
 20
91.1125
 11
-48.6
 21
90
  0
LINE
  8
0
 10
-48.6
 20
90
 11
-48.6
 21
-70
  0
LINE
  8
0
 10
-48.6
 20
-70
 11
-48.4238
 21
-71.1125
  0
LINE
  8
0
 10
-48.4238
 20
-71.1125
 11
-47.9125
 21
-72.116
  0
LINE
  8
0
 10
-47.9125
 20
-72.116
 11
-47.116
 21
-72.9125
  0
LINE
  8
0
 10
-47.116
 20
-72.9125
 11
-46.1125
 21
-73.4238
  0
LINE
  8
0
 10
-46.1125
 20
-73.4238
 11
-45
 21
-73.6
  0
LINE
  8
0
 10
-45
 20
-73.6
 11
45
 21
-73.6
  0
LINE
  8
0
 10
45
 20
-73.6
 11
46.1125
 21
-73.4238
  0
LINE
  8
0
 10
-3.70819
 20
63.5873
 11
-7.05342
 21
65.2918
  0
LINE
  8
0
 10
-7.05342
 20
65.2918
 11
-9.70819
 21
67.9466
  0
LINE
  8
0
 10
-9.70819
 20
67.9466
 11
-11.4127
 21
71.2918
  0
LINE
  8
0
 10
-11.4127
 20
71.2918
 11
-12
 21
75
  0
LINE
  8
0
 10
-12
 20
75
 11
-11.4127
 21
78.7082
  0
LINE
  8
0
 10
-11.4127
 20
78.7082
 11
-9.70819
 21
82.0534
  0
LINE
  8
0
 10
-9.70819
 20
82.0534
 11
-7.05342
 21
84.7082
  0
LINE
  8
0
 10
-7.05342
 20
84.7082
 11
-3.70819
 21
86.4127
  0
LINE
  8
0
 10
-3.70819
 20
86.4127
 11
0
 21
87
  0
LINE
  8
0
 10
0
 20
87
 11
3.70819
 21
86.4127
  0
LINE
  8
0
 10
3.70819
 20
86.4127
 11
7.05342
 21
84.7082
  0
LINE
  8
0
 10
7.05342
 20
84.7082
 11
9.70819
 21
82.0534
  0
LINE
  8
0
 10
9.70819
 20
82.0534
 11
11.4127
 21
78.7082
  0
LINE
  8
0
 10
11.4127
 20
78.7082
 11
12
 21
75
  0
LINE
  8
0
 10
12
 20
75
 11
11.4127
 21
71.2918
  0
LINE
  8
0
 10
11.4127
 20
71.2918
 11
9.70819
 21
67.9466
  0
LINE
  8
0
 10
9.70819
 20
67.9466
 11
7.05342
 21
65.2918
  0
LINE
  8
0
 10
7.05342
 20
65.2918
 11
3.70819
 21
63.5873
  0
LINE
  8
0
 10
3.70819
 20
63.5873
 11
0
 21
63
  0
LINE
  8
0
 10
0
 20
63
 11
-3.70819
 21
63.5873
  0
LINE
  8
0
 10
-28.7082
 20
63.5873
 11
-32.0534
 21
65.2918
  0
LINE
  8
0
 10
-32.0534
 20
65.2918
 11
-34.7082
 21
67.9466
  0
LINE
  8
0
 10
-34.7082
 20
67.9466
 11
-36.4127
 21
71.2918
  0
LINE
  8
0
 10
-36.4127
 20
71.2918
 11
-37
 21
75
  0
LINE
  8
0
 10
-37
 20
75
 11
-36.4127
 21
78.7082
  0
LINE
  8
0
 10
-36.4127
 20
78.7082
 11
-34.7082
 21
82.0534
  0
LINE
  8
0
 10
-34.7082
 20
82.0534
 11
-32.0534
 21
84.7082
  0
LINE
  8
0
 10
-32.0534
 20
84.7082
 11
-28.7082
 21
86.4127
  0
LINE
  8
0
 10
-28.7082
 20
86.4127
 11
-25
 21
87
  0
LINE
  8
0
 10
-25
 20
87
 11
-21.2918
 21
86.4127
  0
LINE
  8
0
 10
-21.2918
 20
86.4127
 11
-17.9466
 21
84.7082
  0
LINE
  8
0
 10
-17.9466
 20
84.7082
 11
-15.2918
 21
82.0534
  0
LINE
  8
0
 10
-15.2918
 20
82.0534
 11
-13.5873
 21
78.7082
  0
LINE
  8
0
 10
-13.5873
 20
78.7082
 11
-13
 21
75
  0
LINE
  8
0
 10
-13
 20
75
 11
-13.5873
 21
71.2918
  0
LINE
  8
0
 10
-13.5873
 20
71.2918
 11
-15.2918
 21
67.9466
  0
LINE
  8
0
 10
-15.2918
 20
67.9466
 11
-17.9466
 21
65.2918
  0
LINE
  8
0
 10
-17.9466
 20
65.2918
 11
-21.2918
 21
63.5873
  0
LINE
  8
0
 10
-21.2918
 20
63.5873
 11
-25
 21
63
  0
LINE
  8
0
 10
-25
 20
63
 11
-28.7082
 21
63.5873
  0
LINE
  8
0
 10
21.2918
 20
63.5873
 11
17.9466
 21
65.2918
  0
LINE
  8
0
 10
17.9466
 20
65.2918
 11
15.2918
 21
67.9466
  0
LINE
  8
0
 10
15.2918
 20
67.9466
 11
13.5873
 21
71.2918
  0
LINE
  8
0
 10
13.5873
 20
71.2918
 11
13
 21
75
  0
LINE
  8
0
 10
13
 20
75
 11
13.5873
 21
78.7082
  0
LINE
  8
0
 10
13.5873
 20
78.7082
 11
15.2918
 21
82.0534
  0
LINE
  8
0
 10
15.2918
 20
82.0534
 11
17.9466
 21
84.7082
  0
LINE
  8
0
 10
17.9466
 20
84.7082
 11
21.2918
 21
86.4127
  0
LINE
  8
0
 10
21.2918
 20
86.4127
 11
25
 21
87
  0
LINE
  8
0
 10
25
 20
87
 11
28.7082
 21
86.4127
  0
LINE
  8
0
 10
28.7082
 20
86.4127
 11
32.0534
 21
84.7082
  0
LINE
  8
0
 10
32.0534
 20
84.7082
 11
34.7082
 21
82.0534
  0
LINE
  8
0
 10
34.7082
 20
82.0534
 11
36.4127
 21
78.7082
  0
LINE
  8
0
 10
36.4127
 20
78.7082
 11
37
 21
75
  0
LINE
  8
0
 10
37
 20
75
 11
36.4127
 21
71.2918
  0
LINE
  8
0
 10
36.4127
 20
71.2918
 11
34.7082
 21
67.9466
  0
LINE
  8
0
 10
34.7082
 20
67.9466
 11
32.0534
 21
65.2918
  0
LINE
  8
0
 10
32.0534
 20
65.2918
 11
28.7082
 21
63.5873
  0
LINE
  8
0
 10
28.7082
 20
63.5873
 11
25
 21
63
  0
LINE
  8
0
 10
25
 20
63
 11
21.2918
 21
63.5873
  0
LINE
  8
0
 10
41.4592
 20
73.3356
 11
40.9714
 21
73.5842
  0
LINE
  8
0
 10
40.9714
 20
73.5842
 11
40.5842
 21
73.9714
  0
LINE
  8
0
 10
40.5842
 20
73.9714
 11
40.3356
 21
74.4592
  0
LINE
  8
0
 10
40.3356
 20
74.4592
 11
40.25
 21
75
  0
LINE
  8
0
 10
40.25
 20
75
 11
40.3356
 21
75.5408
  0
LINE
  8
0
 10
40.3356
 20
75.5408
 11
40.5842
 21
76.0286
  0
LINE
  8
0
 10
40.5842
 20
76.0286
 11
40.9714
 21
76.4158
  0
LINE
  8
0
 10
40.9714
 20
76.4158
 11
41.4592
 21
76.6643
  0
LINE
  8
0
 10
41.4592
 20
76.6643
 11
42
 21
76.75
  0
LINE
  8
0
 10
42
 20
76.75
 11
42.5408
 21
76.6643
  0
LINE
  8
0
 10
42.5408
 20
76.6643
 11
43.0286
 21
76.4158
  0
LINE
  8
0
 10
43.0286
 20
76.4158
 11
43.4158
 21
76.0286
  0
LINE
  8
0
 10
43.4158
 20
76.0286
 11
43.6643
 21
75.5408
  0
LINE
  8
0
 10
43.6643
 20
75.5408
 11
43.75
 21
75
  0
LINE
  8
0
 10
43.75
 20
75
 11
43.6643
 21
74.4592
  0
LINE
  8
0
 10
43.6643
 20
74.4592
 11
43.4158
 21
73.9714
  0
LINE
  8
0
 10
43.4158
 20
73.9714
 11
43.0286
 21
73.5842
  0
LINE
  8
0
 10
43.0286
 20
73.5842
 11
42.5408
 21
73.3356
  0
LINE
  8
0
 10
42.5408
 20
73.3356
 11
42
 21
73.25
  0
LINE
  8
0
 10
42
 20
73.25
 11
41.4592
 21
73.3356
  0
LINE
  8
0
 10
-42.5408
 20
73.3356
 11
-43.0286
 21
73.5842
  0
LINE
  8
0
 10
-43.0286
 20
73.5842
 11
-43.4158
 21
73.9714
  0
LINE
  8
0
 10
-43.4158
 20
73.9714
 11
-43.6643
 21
74.4592
  0
LINE
  8
0
 10
-43.6643
 20
74.4592
 11
-43.75
 21
75
  0
LINE
  8
0
 10
-43.75
 20
75
 11
-43.6643
 21
75.5408
  0
LINE
  8
0
 10
-43.6643
 20
75.5408
 11
-43.4158
 21
76.0286
  0
LINE
  8
0
 10
-43.4158
 20
76.0286
 11
-43.0286
 21
76.4158
  0
LINE
  8
0
 10
-43.0286
 20
76.4158
 11
-42.5408
 21
76.6643
  0
LINE
  8
0
 10
-42.5408
 20
76.6643
 11
-42
 21
76.75
  0
LINE
  8
0
 10
-42
 20
76.75
 11
-41.4592
 21
76.6643
  0
LINE
  8
0
 10
-41.4592
 20
76.6643
 11
-40.9714
 21
76.4158
  0
LINE
  8
0
 10
-40.9714
 20
76.4158
 11
-40.5842
 21
76.0286
  0
LINE
  8
0
 10
-40.5842
 20
76.0286
 11
-40.3356
 21
75.5408
  0
LINE
  8
0
 10
-40.3356
 20
75.5408
 11
-40.25
 21
75
  0
LINE
  8
0
 10
-40.25
 20
75
 11
-40.3356
 21
74.4592
  0
LINE
  8
0
 10
-40.3356
 20
74.4592
 11
-40.5842
 21
73.9714
  0
LINE
  8
0
 10
-40.5842
 20
73.9714
 11
-40.9714
 21
73.5842
  0
LINE
  8
0
 10
-40.9714
 20
73.5842
 11
-41.4592
 21
73.3356
  0
LINE
  8
0
 10
-41.4592
 20
73.3356
 11
-42
 21
73.25
  0
LINE
  8
0
 10
-42
 20
73.25
 11
-42.5408
 21
73.3356
  0
LINE
  8
0
 10
-41
 20
-41
 11
-41
 21
41
  0
LINE
  8
0
 10
-41
 20
41
 11
41
 21
41
  0
LINE
  8
0
 10
41
 20
41
 11
41
 21
-41
  0
LINE
  8
0
 10
41
 20
-41
 11
-41
 21
-41
  0
LINE
  8
0
 10
-23.7082
 20
-66.4127
 11
-27.0534
 21
-64.7082
  0
LINE
  8
0
 10
-27.0534
 20
-64.7082
 11
-29.7082
 21
-62.0534
  0
LINE
  8
0
 10
-29.7082
 20
-62.0534
 11
-31.4127
 21
-58.7082
  0
LINE
  8
0
 10
-31.4127
 20
-58.7082
 11
-32
 21
-55
  0
LINE
  8
0
 10
-32
 20
-55
 11
-31.4127
 21
-51.2918
  0
LINE
  8
0
 10
-31.4127
 20
-51.2918
 11
-29.7082
 21
-47.9466
  0
LINE
  8
0
 10
-29.7082
 20
-47.9466
 11
-27.0534
 21
-45.2918
  0
LINE
  8
0
 10
-27.0534
 20
-45.2918
 11
-23.7082
 21
-43.5873
  0
LINE
  8
0
 10
-23.7082
 20
-43.5873
 11
-20
 21
-43
  0
LINE
  8
0
 10
-20
 20
-43
 11
-16.2918
 21
-43.5873
  0
LINE
  8
0
 10
-16.2918
 20
-43.5873
 11
-12.9466
 21
-45.2918
  0
LINE
  8
0
 10
-12.9466
 20
-45.2918
 11
-10.2918
 21
-47.9466
  0
LINE
  8
0
 10
-10.2918
 20
-47.9466
 11
-8.58731
 21
-51.2918
  0
LINE
  8
0
 10
-8.58731
 20
-51.2918
 11
-8
 21
-55
  0
LINE
  8
0
 10
-8
 20
-55
 11
-8.58731
 21
-58.7082
  0
LINE
  8
0
 10
-8.58731
 20
-58.7082
 11
-10.2918
 21
-62.0534
  0
LINE
  8
0
 10
-10.2918
 20
-62.0534
 11
-12.9466
 21
-64.7082
  0
LINE
  8
0
 10
-12.9466
 20
-64.7082
 11
-16.2918
 21
-66.4127
  0
LINE
  8
0
 10
-16.2918
 20
-66.4127
 11
-20
 21
-67
  0
LINE
  8
0
 10
-20
 20
-67
 11
-23.7082
 21
-66.4127
  0
LINE
  8
0
 10
16.2918
 20
-66.4127
 11
12.9466
 21
-64.7082
  0
LINE
  8
0
 10
12.9466
 20
-64.7082
 11
10.2918
 21
-62.0534
  0
LINE
  8
0
 10
10.2918
 20
-62.0534
 11
8.58731
 21
-58.7082
  0
LINE
  8
0
 10
8.58731
 20
-58.7082
 11
8
 21
-55
  0
LINE
  8
0
 10
8
 20
-55
 11
8.58731
 21
-51.2918
  0
LINE
  8
0
 10
8.58731
 20
-51.2918
 11
10.2918
 21
-47.9466
  0
LINE
  8
0
 10
10.2918
 20
-47.9466
 11
12.9466
 21
-45.2918
  0
LINE
  8
0
 10
12.9466
 20
-45.2918
 11
16.2918
 21
-43.5873
  0
LINE
  8
0
 10
16.2918
 20
-43.5873
 11
20
 21
-43
  0
LINE
  8
0
 10
20
 20
-43
 11
23.7082
 21
-43.5873
  0
LINE
  8
0
 10
23.7082
 20
-43.5873
 11
27.0534
 21
-45.2918
  0
LINE
  8
0
 10
27.0534
 20
-45.2918
 11
29.7082
 21
-47.9466
  0
LINE
  8
0
 10
29.7082
 20
-47.9466
 11
31.4127
 21
-51.2918
  0
LINE
  8
0
 10
31.4127
 20
-51.2918
 11
32
 21
-55
  0
LINE
  8
0
 10
32
 20
-55
 11
31.4127
 21
-58.7082
  0
LINE
  8
0
 10
31.4127
 20
-58.7082
 11
29.7082
 21
-62.0534
  0
LINE
  8
0
 10
29.7082
 20
-62.0534
 11
27.0534
 21
-64.7082
  0
LINE
  8
0
 10
27.0534
 20
-64.7082
 11
23.7082
 21
-66.4127
  0
LINE
  8
0
 10
23.7082
 20
-66.4127
 11
20
 21
-67
  0
LINE
  8
0
 10
20
 20
-67
 11
16.2918
 21
-66.4127
  0
LINE
  8
0
 10
41.4592
 20
-56.6643
 11
40.9714
 21
-56.4158
  0
LINE
  8
0
 10
40.9714
 20
-56.4158
 11
40.5842
 21
-56.0286
  0
LINE
  8
0
 10
40.5842
 20
-56.0286
 11
40.3356
 21
-55.5408
  0
LINE
  8
0
 10
40.3356
 20
-55.5408
 11
40.25
 21
-55
  0
LINE
  8
0
 10
40.25
 20
-55
 11
40.3356
 21
-54.4592
  0
LINE
  8
0
 10
40.3356
 20
-54.4592
 11
40.5842
 21
-53.9714
  0
LINE
  8
0
 10
40.5842
 20
-53.9714
 11
40.9714
 21
-53.5842
  0
LINE
  8
0
 10
40.9714
 20
-53.5842
 11
41.4592
 21
-53.3356
  0
LINE
  8
0
 10
41.4592
 20
-53.3356
 11
42
 21
-53.25
  0
LINE
  8
0
 10
42
 20
-53.25
 11
42.5408
 21
-53.3356
  0
LINE
  8
0
 10
42.5408
 20
-53.3356
 11
43.0286
 21
-53.5842
  0
LINE
  8
0
 10
43.0286
 20
-53.5842
 11
43.4158
 21
-53.9714
  0
LINE
  8
0
 10
43.4158
 20
-53.9714
 11
43.6643
 21
-54.4592
  0
LINE
  8
0
 10
43.6643
 20
-54.4592
 11
43.75
 21
-55
  0
LINE
  8
0
 10
43.75
 20
-55
 11
43.6643
 21
-55.5408
  0
LINE
  8
0
 10
43.6643
 20
-55.5408
 11
43.4158
 21
-56.0286
  0
LINE
  8
0
 10
43.4158
 20
-56.0286
 11
43.0286
 21
-56.4158
  0
LINE
  8
0
 10
43.0286
 20
-56.4158
 11
42.5408
 21
-56.6643
  0
LINE
  8
0
 10
42.5408
 20
-56.6643
 11
42
 21
-56.75
  0
LINE
  8
0
 10
42
 20
-56.75
 11
41.4592
 21
-56.6643
  0
LINE
  8
0
 10
-42.5408
 20
-56.6643
 11
-43.0286
 21
-56.4158
  0
LINE
  8
0
 10
-43.0286
 20
-56.4158
 11
-43.4158
 21
-56.0286
  0
LINE
  8
0
 10
-43.4158
 20
-56.0286
 11
-43.6643
 21
-55.5408
  0
LINE
  8
0
 10
-43.6643
 20
-55.5408
 11
-43.75
 21
-55
  0
LINE
  8
0
 10
-43.75
 20
-55
 11
-43.6643
 21
-54.4592
  0
LINE
  8
0
 10
-43.6643
 20
-54.4592
 11
-43.4158
 21
-53.9714
  0
LINE
  8
0
 10
-43.4158
 20
-53.9714
 11
-43.0286
 21
-53.5842
  0
LINE
  8
0
 10
-43.0286
 20
-53.5842
 11
-42.5408
 21
-53.3356
  0
LINE
  8
0
 10
-42.5408
 20
-53.3356
 11
-42
 21
-53.25
  0
LINE
  8
0
 10
-42
 20
-53.25
 11
-41.4592
 21
-53.3356
  0
LINE
  8
0
 10
-41.4592
 20
-53.3356
 11
-40.9714
 21
-53.5842
  0
LINE
  8
0
 10
-40.9714
 20
-53.5842
 11
-40.5842
 21
-53.9714
  0
LINE
  8
0
 10
-40.5842
 20
-53.9714
 11
-40.3356
 21
-54.4592
  0
LINE
  8
0
 10
-40.3356
 20
-54.4592
 11
-40.25
 21
-55
  0
LINE
  8
0
 10
-40.25
 20
-55
 11
-40.3356
 21
-55.5408
  0
LINE
  8
0
 10
-40.3356
 20
-55.5408
 11
-40.5842
 21
-56.0286
  0
LINE
  8
0
 10
-40.5842
 20
-56.0286
 11
-40.9714
 21
-56.4158
  0
LINE
  8
0
 10
-40.9714
 20
-56.4158
 11
-41.4592
 21
-56.6643
  0
LINE
  8
0
 10
-41.4592
 20
-56.6643
 11
-42
 21
-56.75
  0
LINE
  8
0
 10
-42
 20
-56.75
 11
-42.5408
 21
-56.6643
  0
ENDSEC
  0
SECTION
  2
OBJECTS
  0
DICTIONARY
  0
ENDSEC
  0
EOF
