  0
SECTION
  2
BLOCKS
  0
ENDSEC
  0
SECTION
  2
ENTITIES
  0
LINE
  8
0
 10
46.1125
 20
-73.4238
 11
47.116
 21
-72.9125
  0
LINE
  8
0
 10
47.116
 20
-72.9125
 11
47.9125
 21
-72.116
  0
LINE
  8
0
 10
47.9125
 20
-72.116
 11
48.4238
 21
-71.1125
  0
LINE
  8
0
 10
48.4238
 20
-71.1125
 11
48.6
 21
-70
  0
LINE
  8
0
 10
48.6
 20
-70
 11
48.6
 21
90
  0
LINE
  8
0
 10
48.6
 20
90
 11
48.4238
 21
91.1125
  0
LINE
  8
0
 10
48.4238
 20
91.1125
 11
47.9125
 21
92.116
  0
LINE
  8
0
 10
47.9125
 20
92.116
 11
47.116
 21
92.9125
  0
LINE
  8
0
 10
47.116
 20
92.9125
 11
46.1125
 21
93.4238
  0
LINE
  8
0
 10
46.1125
 20
93.4238
 11
45
 21
93.6
  0
LINE
  8
0
 10
45
 20
93.6
 11
-45
 21
93.6
  0
LINE
  8
0
 10
-45
 20
93.6
 11
-46.1125
 21
93.4238
  0
LINE
  8
0
 10
-46.1125
 20
93.4238
 11
-47.116
 21
92.9125
  0
LINE
  8
0
 10
-47.116
 20
92.9125
 11
-47.9125
 21
92.116
  0
LINE
  8
0
 10
-47.9125
 20
92.116
 11
-48.4238
 21
91.1125
  0
LINE
  8
0
 10
-48.4238
 20
91.1125
 11
-48.6
 21
90
  0
LINE
  8
0
 10
-48.6
 20
90
 11
-48.6
 21
-70
  0
LINE
  8
0
 10
-48.6
 20
-70
 11
-48.4238
 21
-71.1125
  0
LINE
  8
0
 10
-48.4238
 20
-71.1125
 11
-47.9125
 21
-72.116
  0
LINE
  8
0
 10
-47.9125
 20
-72.116
 11
-47.116
 21
-72.9125
  0
LINE
  8
0
 10
-47.116
 20
-72.9125
 11
-46.1125
 21
-73.4238
  0
LINE
  8
0
 10
-46.1125
 20
-73.4238
 11
-45
 21
-73.6
  0
LINE
  8
0
 10
-45
 20
-73.6
 11
45
 21
-73.6
  0
LINE
  8
0
 10
45
 20
-73.6
 11
46.1125
 21
-73.4238
  0
LINE
  8
0
 10
-16.8863
 20
88.3112
 11
-17.2347
 21
88.4887
  0
LINE
  8
0
 10
-17.2347
 20
88.4887
 11
-17.5113
 21
88.7653
  0
LINE
  8
0
 10
-17.5113
 20
88.7653
 11
-17.6888
 21
89.1137
  0
LINE
  8
0
 10
-17.6888
 20
89.1137
 11
-17.75
 21
89.5
  0
LINE
  8
0
 10
-17.75
 20
89.5
 11
-17.6888
 21
89.8863
  0
LINE
  8
0
 10
-17.6888
 20
89.8863
 11
-17.5113
 21
90.2347
  0
LINE
  8
0
 10
-17.5113
 20
90.2347
 11
-17.2347
 21
90.5113
  0
LINE
  8
0
 10
-17.2347
 20
90.5113
 11
-16.8863
 21
90.6888
  0
LINE
  8
0
 10
-16.8863
 20
90.6888
 11
-16.5
 21
90.75
  0
LINE
  8
0
 10
-16.5
 20
90.75
 11
-16.1137
 21
90.6888
  0
LINE
  8
0
 10
-16.1137
 20
90.6888
 11
-15.7653
 21
90.5113
  0
LINE
  8
0
 10
-15.7653
 20
90.5113
 11
-15.4887
 21
90.2347
  0
LINE
  8
0
 10
-15.4887
 20
90.2347
 11
-15.3112
 21
89.8863
  0
LINE
  8
0
 10
-15.3112
 20
89.8863
 11
-15.25
 21
89.5
  0
LINE
  8
0
 10
-15.25
 20
89.5
 11
-15.3112
 21
89.1137
  0
LINE
  8
0
 10
-15.3112
 20
89.1137
 11
-15.4887
 21
88.7653
  0
LINE
  8
0
 10
-15.4887
 20
88.7653
 11
-15.7653
 21
88.4887
  0
LINE
  8
0
 10
-15.7653
 20
88.4887
 11
-16.1137
 21
88.3112
  0
LINE
  8
0
 10
-16.1137
 20
88.3112
 11
-16.5
 21
88.25
  0
LINE
  8
0
 10
-16.5
 20
88.25
 11
-16.8863
 21
88.3112
  0
LINE
  8
0
 10
16.1137
 20
88.3112
 11
15.7653
 21
88.4887
  0
LINE
  8
0
 10
15.7653
 20
88.4887
 11
15.4887
 21
88.7653
  0
LINE
  8
0
 10
15.4887
 20
88.7653
 11
15.3112
 21
89.1137
  0
LINE
  8
0
 10
15.3112
 20
89.1137
 11
15.25
 21
89.5
  0
LINE
  8
0
 10
15.25
 20
89.5
 11
15.3112
 21
89.8863
  0
LINE
  8
0
 10
15.3112
 20
89.8863
 11
15.4887
 21
90.2347
  0
LINE
  8
0
 10
15.4887
 20
90.2347
 11
15.7653
 21
90.5113
  0
LINE
  8
0
 10
15.7653
 20
90.5113
 11
16.1137
 21
90.6888
  0
LINE
  8
0
 10
16.1137
 20
90.6888
 11
16.5
 21
90.75
  0
LINE
  8
0
 10
16.5
 20
90.75
 11
16.8863
 21
90.6888
  0
LINE
  8
0
 10
16.8863
 20
90.6888
 11
17.2347
 21
90.5113
  0
LINE
  8
0
 10
17.2347
 20
90.5113
 11
17.5113
 21
90.2347
  0
LINE
  8
0
 10
17.5113
 20
90.2347
 11
17.6888
 21
89.8863
  0
LINE
  8
0
 10
17.6888
 20
89.8863
 11
17.75
 21
89.5
  0
LINE
  8
0
 10
17.75
 20
89.5
 11
17.6888
 21
89.1137
  0
LINE
  8
0
 10
17.6888
 20
89.1137
 11
17.5113
 21
88.7653
  0
LINE
  8
0
 10
17.5113
 20
88.7653
 11
17.2347
 21
88.4887
  0
LINE
  8
0
 10
17.2347
 20
88.4887
 11
16.8863
 21
88.3112
  0
LINE
  8
0
 10
16.8863
 20
88.3112
 11
16.5
 21
88.25
  0
LINE
  8
0
 10
16.5
 20
88.25
 11
16.1137
 21
88.3112
  0
LINE
  8
0
 10
41.4592
 20
73.3356
 11
40.9714
 21
73.5842
  0
LINE
  8
0
 10
40.9714
 20
73.5842
 11
40.5842
 21
73.9714
  0
LINE
  8
0
 10
40.5842
 20
73.9714
 11
40.3356
 21
74.4592
  0
LINE
  8
0
 10
40.3356
 20
74.4592
 11
40.25
 21
75
  0
LINE
  8
0
 10
40.25
 20
75
 11
40.3356
 21
75.5408
  0
LINE
  8
0
 10
40.3356
 20
75.5408
 11
40.5842
 21
76.0286
  0
LINE
  8
0
 10
40.5842
 20
76.0286
 11
40.9714
 21
76.4158
  0
LINE
  8
0
 10
40.9714
 20
76.4158
 11
41.4592
 21
76.6643
  0
LINE
  8
0
 10
41.4592
 20
76.6643
 11
42
 21
76.75
  0
LINE
  8
0
 10
42
 20
76.75
 11
42.5408
 21
76.6643
  0
LINE
  8
0
 10
42.5408
 20
76.6643
 11
43.0286
 21
76.4158
  0
LINE
  8
0
 10
43.0286
 20
76.4158
 11
43.4158
 21
76.0286
  0
LINE
  8
0
 10
43.4158
 20
76.0286
 11
43.6643
 21
75.5408
  0
LINE
  8
0
 10
43.6643
 20
75.5408
 11
43.75
 21
75
  0
LINE
  8
0
 10
43.75
 20
75
 11
43.6643
 21
74.4592
  0
LINE
  8
0
 10
43.6643
 20
74.4592
 11
43.4158
 21
73.9714
  0
LINE
  8
0
 10
43.4158
 20
73.9714
 11
43.0286
 21
73.5842
  0
LINE
  8
0
 10
43.0286
 20
73.5842
 11
42.5408
 21
73.3356
  0
LINE
  8
0
 10
42.5408
 20
73.3356
 11
42
 21
73.25
  0
LINE
  8
0
 10
42
 20
73.25
 11
41.4592
 21
73.3356
  0
LINE
  8
0
 10
-42.5408
 20
73.3356
 11
-43.0286
 21
73.5842
  0
LINE
  8
0
 10
-43.0286
 20
73.5842
 11
-43.4158
 21
73.9714
  0
LINE
  8
0
 10
-43.4158
 20
73.9714
 11
-43.6643
 21
74.4592
  0
LINE
  8
0
 10
-43.6643
 20
74.4592
 11
-43.75
 21
75
  0
LINE
  8
0
 10
-43.75
 20
75
 11
-43.6643
 21
75.5408
  0
LINE
  8
0
 10
-43.6643
 20
75.5408
 11
-43.4158
 21
76.0286
  0
LINE
  8
0
 10
-43.4158
 20
76.0286
 11
-43.0286
 21
76.4158
  0
LINE
  8
0
 10
-43.0286
 20
76.4158
 11
-42.5408
 21
76.6643
  0
LINE
  8
0
 10
-42.5408
 20
76.6643
 11
-42
 21
76.75
  0
LINE
  8
0
 10
-42
 20
76.75
 11
-41.4592
 21
76.6643
  0
LINE
  8
0
 10
-41.4592
 20
76.6643
 11
-40.9714
 21
76.4158
  0
LINE
  8
0
 10
-40.9714
 20
76.4158
 11
-40.5842
 21
76.0286
  0
LINE
  8
0
 10
-40.5842
 20
76.0286
 11
-40.3356
 21
75.5408
  0
LINE
  8
0
 10
-40.3356
 20
75.5408
 11
-40.25
 21
75
  0
LINE
  8
0
 10
-40.25
 20
75
 11
-40.3356
 21
74.4592
  0
LINE
  8
0
 10
-40.3356
 20
74.4592
 11
-40.5842
 21
73.9714
  0
LINE
  8
0
 10
-40.5842
 20
73.9714
 11
-40.9714
 21
73.5842
  0
LINE
  8
0
 10
-40.9714
 20
73.5842
 11
-41.4592
 21
73.3356
  0
LINE
  8
0
 10
-41.4592
 20
73.3356
 11
-42
 21
73.25
  0
LINE
  8
0
 10
-42
 20
73.25
 11
-42.5408
 21
73.3356
  0
LINE
  8
0
 10
5.31372
 20
31.8112
 11
4.96526
 21
31.9887
  0
LINE
  8
0
 10
4.96526
 20
31.9887
 11
4.68872
 21
32.2653
  0
LINE
  8
0
 10
4.68872
 20
32.2653
 11
4.51117
 21
32.6137
  0
LINE
  8
0
 10
4.51117
 20
32.6137
 11
4.45
 21
33
  0
LINE
  8
0
 10
4.45
 20
33
 11
4.51117
 21
33.3863
  0
LINE
  8
0
 10
4.51117
 20
33.3863
 11
4.68872
 21
33.7347
  0
LINE
  8
0
 10
4.68872
 20
33.7347
 11
4.96526
 21
34.0113
  0
LINE
  8
0
 10
4.96526
 20
34.0113
 11
5.31372
 21
34.1888
  0
LINE
  8
0
 10
5.31372
 20
34.1888
 11
5.7
 21
34.25
  0
LINE
  8
0
 10
5.7
 20
34.25
 11
6.08626
 21
34.1888
  0
LINE
  8
0
 10
6.08626
 20
34.1888
 11
6.43472
 21
34.0113
  0
LINE
  8
0
 10
6.43472
 20
34.0113
 11
6.71126
 21
33.7347
  0
LINE
  8
0
 10
6.71126
 20
33.7347
 11
6.88881
 21
33.3863
  0
LINE
  8
0
 10
6.88881
 20
33.3863
 11
6.95
 21
33
  0
LINE
  8
0
 10
6.95
 20
33
 11
6.88881
 21
32.6137
  0
LINE
  8
0
 10
6.88881
 20
32.6137
 11
6.71126
 21
32.2653
  0
LINE
  8
0
 10
6.71126
 20
32.2653
 11
6.43472
 21
31.9887
  0
LINE
  8
0
 10
6.43472
 20
31.9887
 11
6.08626
 21
31.8112
  0
LINE
  8
0
 10
6.08626
 20
31.8112
 11
5.7
 21
31.75
  0
LINE
  8
0
 10
5.7
 20
31.75
 11
5.31372
 21
31.8112
  0
LINE
  8
0
 10
-6.08626
 20
31.8112
 11
-6.43472
 21
31.9887
  0
LINE
  8
0
 10
-6.43472
 20
31.9887
 11
-6.71126
 21
32.2653
  0
LINE
  8
0
 10
-6.71126
 20
32.2653
 11
-6.88881
 21
32.6137
  0
LINE
  8
0
 10
-6.88881
 20
32.6137
 11
-6.95
 21
33
  0
LINE
  8
0
 10
-6.95
 20
33
 11
-6.88881
 21
33.3863
  0
LINE
  8
0
 10
-6.88881
 20
33.3863
 11
-6.71126
 21
33.7347
  0
LINE
  8
0
 10
-6.71126
 20
33.7347
 11
-6.43472
 21
34.0113
  0
LINE
  8
0
 10
-6.43472
 20
34.0113
 11
-6.08626
 21
34.1888
  0
LINE
  8
0
 10
-6.08626
 20
34.1888
 11
-5.7
 21
34.25
  0
LINE
  8
0
 10
-5.7
 20
34.25
 11
-5.31372
 21
34.1888
  0
LINE
  8
0
 10
-5.31372
 20
34.1888
 11
-4.96526
 21
34.0113
  0
LINE
  8
0
 10
-4.96526
 20
34.0113
 11
-4.68872
 21
33.7347
  0
LINE
  8
0
 10
-4.68872
 20
33.7347
 11
-4.51117
 21
33.3863
  0
LINE
  8
0
 10
-4.51117
 20
33.3863
 11
-4.45
 21
33
  0
LINE
  8
0
 10
-4.45
 20
33
 11
-4.51117
 21
32.6137
  0
LINE
  8
0
 10
-4.51117
 20
32.6137
 11
-4.68872
 21
32.2653
  0
LINE
  8
0
 10
-4.68872
 20
32.2653
 11
-4.96526
 21
31.9887
  0
LINE
  8
0
 10
-4.96526
 20
31.9887
 11
-5.31372
 21
31.8112
  0
LINE
  8
0
 10
-5.31372
 20
31.8112
 11
-5.7
 21
31.75
  0
LINE
  8
0
 10
-5.7
 20
31.75
 11
-6.08626
 21
31.8112
  0
LINE
  8
0
 10
5.31372
 20
-14.1888
 11
4.96526
 21
-14.0113
  0
LINE
  8
0
 10
4.96526
 20
-14.0113
 11
4.68872
 21
-13.7347
  0
LINE
  8
0
 10
4.68872
 20
-13.7347
 11
4.51117
 21
-13.3863
  0
LINE
  8
0
 10
4.51117
 20
-13.3863
 11
4.45
 21
-13
  0
LINE
  8
0
 10
4.45
 20
-13
 11
4.51117
 21
-12.6137
  0
LINE
  8
0
 10
4.51117
 20
-12.6137
 11
4.68872
 21
-12.2653
  0
LINE
  8
0
 10
4.68872
 20
-12.2653
 11
4.96526
 21
-11.9887
  0
LINE
  8
0
 10
4.96526
 20
-11.9887
 11
5.31372
 21
-11.8112
  0
LINE
  8
0
 10
5.31372
 20
-11.8112
 11
5.7
 21
-11.75
  0
LINE
  8
0
 10
5.7
 20
-11.75
 11
6.08626
 21
-11.8112
  0
LINE
  8
0
 10
6.08626
 20
-11.8112
 11
6.43472
 21
-11.9887
  0
LINE
  8
0
 10
6.43472
 20
-11.9887
 11
6.71126
 21
-12.2653
  0
LINE
  8
0
 10
6.71126
 20
-12.2653
 11
6.88881
 21
-12.6137
  0
LINE
  8
0
 10
6.88881
 20
-12.6137
 11
6.95
 21
-13
  0
LINE
  8
0
 10
6.95
 20
-13
 11
6.88881
 21
-13.3863
  0
LINE
  8
0
 10
6.88881
 20
-13.3863
 11
6.71126
 21
-13.7347
  0
LINE
  8
0
 10
6.71126
 20
-13.7347
 11
6.43472
 21
-14.0113
  0
LINE
  8
0
 10
6.43472
 20
-14.0113
 11
6.08626
 21
-14.1888
  0
LINE
  8
0
 10
6.08626
 20
-14.1888
 11
5.7
 21
-14.25
  0
LINE
  8
0
 10
5.7
 20
-14.25
 11
5.31372
 21
-14.1888
  0
LINE
  8
0
 10
-6.08626
 20
-14.1888
 11
-6.43472
 21
-14.0113
  0
LINE
  8
0
 10
-6.43472
 20
-14.0113
 11
-6.71126
 21
-13.7347
  0
LINE
  8
0
 10
-6.71126
 20
-13.7347
 11
-6.88881
 21
-13.3863
  0
LINE
  8
0
 10
-6.88881
 20
-13.3863
 11
-6.95
 21
-13
  0
LINE
  8
0
 10
-6.95
 20
-13
 11
-6.88881
 21
-12.6137
  0
LINE
  8
0
 10
-6.88881
 20
-12.6137
 11
-6.71126
 21
-12.2653
  0
LINE
  8
0
 10
-6.71126
 20
-12.2653
 11
-6.43472
 21
-11.9887
  0
LINE
  8
0
 10
-6.43472
 20
-11.9887
 11
-6.08626
 21
-11.8112
  0
LINE
  8
0
 10
-6.08626
 20
-11.8112
 11
-5.7
 21
-11.75
  0
LINE
  8
0
 10
-5.7
 20
-11.75
 11
-5.31372
 21
-11.8112
  0
LINE
  8
0
 10
-5.31372
 20
-11.8112
 11
-4.96526
 21
-11.9887
  0
LINE
  8
0
 10
-4.96526
 20
-11.9887
 11
-4.68872
 21
-12.2653
  0
LINE
  8
0
 10
-4.68872
 20
-12.2653
 11
-4.51117
 21
-12.6137
  0
LINE
  8
0
 10
-4.51117
 20
-12.6137
 11
-4.45
 21
-13
  0
LINE
  8
0
 10
-4.45
 20
-13
 11
-4.51117
 21
-13.3863
  0
LINE
  8
0
 10
-4.51117
 20
-13.3863
 11
-4.68872
 21
-13.7347
  0
LINE
  8
0
 10
-4.68872
 20
-13.7347
 11
-4.96526
 21
-14.0113
  0
LINE
  8
0
 10
-4.96526
 20
-14.0113
 11
-5.31372
 21
-14.1888
  0
LINE
  8
0
 10
-5.31372
 20
-14.1888
 11
-5.7
 21
-14.25
  0
LINE
  8
0
 10
-5.7
 20
-14.25
 11
-6.08626
 21
-14.1888
  0
LINE
  8
0
 10
41.4592
 20
-56.6643
 11
40.9714
 21
-56.4158
  0
LINE
  8
0
 10
40.9714
 20
-56.4158
 11
40.5842
 21
-56.0286
  0
LINE
  8
0
 10
40.5842
 20
-56.0286
 11
40.3356
 21
-55.5408
  0
LINE
  8
0
 10
40.3356
 20
-55.5408
 11
40.25
 21
-55
  0
LINE
  8
0
 10
40.25
 20
-55
 11
40.3356
 21
-54.4592
  0
LINE
  8
0
 10
40.3356
 20
-54.4592
 11
40.5842
 21
-53.9714
  0
LINE
  8
0
 10
40.5842
 20
-53.9714
 11
40.9714
 21
-53.5842
  0
LINE
  8
0
 10
40.9714
 20
-53.5842
 11
41.4592
 21
-53.3356
  0
LINE
  8
0
 10
41.4592
 20
-53.3356
 11
42
 21
-53.25
  0
LINE
  8
0
 10
42
 20
-53.25
 11
42.5408
 21
-53.3356
  0
LINE
  8
0
 10
42.5408
 20
-53.3356
 11
43.0286
 21
-53.5842
  0
LINE
  8
0
 10
43.0286
 20
-53.5842
 11
43.4158
 21
-53.9714
  0
LINE
  8
0
 10
43.4158
 20
-53.9714
 11
43.6643
 21
-54.4592
  0
LINE
  8
0
 10
43.6643
 20
-54.4592
 11
43.75
 21
-55
  0
LINE
  8
0
 10
43.75
 20
-55
 11
43.6643
 21
-55.5408
  0
LINE
  8
0
 10
43.6643
 20
-55.5408
 11
43.4158
 21
-56.0286
  0
LINE
  8
0
 10
43.4158
 20
-56.0286
 11
43.0286
 21
-56.4158
  0
LINE
  8
0
 10
43.0286
 20
-56.4158
 11
42.5408
 21
-56.6643
  0
LINE
  8
0
 10
42.5408
 20
-56.6643
 11
42
 21
-56.75
  0
LINE
  8
0
 10
42
 20
-56.75
 11
41.4592
 21
-56.6643
  0
LINE
  8
0
 10
-42.5408
 20
-56.6643
 11
-43.0286
 21
-56.4158
  0
LINE
  8
0
 10
-43.0286
 20
-56.4158
 11
-43.4158
 21
-56.0286
  0
LINE
  8
0
 10
-43.4158
 20
-56.0286
 11
-43.6643
 21
-55.5408
  0
LINE
  8
0
 10
-43.6643
 20
-55.5408
 11
-43.75
 21
-55
  0
LINE
  8
0
 10
-43.75
 20
-55
 11
-43.6643
 21
-54.4592
  0
LINE
  8
0
 10
-43.6643
 20
-54.4592
 11
-43.4158
 21
-53.9714
  0
LINE
  8
0
 10
-43.4158
 20
-53.9714
 11
-43.0286
 21
-53.5842
  0
LINE
  8
0
 10
-43.0286
 20
-53.5842
 11
-42.5408
 21
-53.3356
  0
LINE
  8
0
 10
-42.5408
 20
-53.3356
 11
-42
 21
-53.25
  0
LINE
  8
0
 10
-42
 20
-53.25
 11
-41.4592
 21
-53.3356
  0
LINE
  8
0
 10
-41.4592
 20
-53.3356
 11
-40.9714
 21
-53.5842
  0
LINE
  8
0
 10
-40.9714
 20
-53.5842
 11
-40.5842
 21
-53.9714
  0
LINE
  8
0
 10
-40.5842
 20
-53.9714
 11
-40.3356
 21
-54.4592
  0
LINE
  8
0
 10
-40.3356
 20
-54.4592
 11
-40.25
 21
-55
  0
LINE
  8
0
 10
-40.25
 20
-55
 11
-40.3356
 21
-55.5408
  0
LINE
  8
0
 10
-40.3356
 20
-55.5408
 11
-40.5842
 21
-56.0286
  0
LINE
  8
0
 10
-40.5842
 20
-56.0286
 11
-40.9714
 21
-56.4158
  0
LINE
  8
0
 10
-40.9714
 20
-56.4158
 11
-41.4592
 21
-56.6643
  0
LINE
  8
0
 10
-41.4592
 20
-56.6643
 11
-42
 21
-56.75
  0
LINE
  8
0
 10
-42
 20
-56.75
 11
-42.5408
 21
-56.6643
  0
ENDSEC
  0
SECTION
  2
OBJECTS
  0
DICTIONARY
  0
ENDSEC
  0
EOF
