  0
SECTION
  2
BLOCKS
  0
ENDSEC
  0
SECTION
  2
ENTITIES
  0
LINE
  8
0
 10
46.3597
 20
-74.1846
 11
47.5863
 21
-73.5597
  0
LINE
  8
0
 10
47.5863
 20
-73.5597
 11
48.5597
 21
-72.5863
  0
LINE
  8
0
 10
48.5597
 20
-72.5863
 11
49.1846
 21
-71.3597
  0
LINE
  8
0
 10
49.1846
 20
-71.3597
 11
49.4
 21
-70
  0
LINE
  8
0
 10
49.4
 20
-70
 11
49.4
 21
90
  0
LINE
  8
0
 10
49.4
 20
90
 11
49.1846
 21
91.3597
  0
LINE
  8
0
 10
49.1846
 20
91.3597
 11
48.5597
 21
92.5863
  0
LINE
  8
0
 10
48.5597
 20
92.5863
 11
47.5863
 21
93.5597
  0
LINE
  8
0
 10
47.5863
 20
93.5597
 11
46.3597
 21
94.1846
  0
LINE
  8
0
 10
46.3597
 20
94.1846
 11
45
 21
94.4
  0
LINE
  8
0
 10
45
 20
94.4
 11
20
 21
94.4
  0
LINE
  8
0
 10
20
 20
94.4
 11
20
 21
85.6
  0
LINE
  8
0
 10
20
 20
85.6
 11
40.6
 21
85.6
  0
LINE
  8
0
 10
40.6
 20
85.6
 11
40.6
 21
77.8146
  0
LINE
  8
0
 10
40.6
 20
77.8146
 11
43.625
 21
77.8146
  0
LINE
  8
0
 10
43.625
 20
77.8146
 11
45.25
 21
75
  0
LINE
  8
0
 10
45.25
 20
75
 11
43.625
 21
72.1854
  0
LINE
  8
0
 10
43.625
 20
72.1854
 11
40.6
 21
72.1854
  0
LINE
  8
0
 10
40.6
 20
72.1854
 11
40.6
 21
-52.1854
  0
LINE
  8
0
 10
40.6
 20
-52.1854
 11
43.625
 21
-52.1854
  0
LINE
  8
0
 10
43.625
 20
-52.1854
 11
45.25
 21
-55
  0
LINE
  8
0
 10
45.25
 20
-55
 11
43.625
 21
-57.8146
  0
LINE
  8
0
 10
43.625
 20
-57.8146
 11
40.6
 21
-57.8146
  0
LINE
  8
0
 10
40.6
 20
-57.8146
 11
40.6
 21
-65.6
  0
LINE
  8
0
 10
40.6
 20
-65.6
 11
-40.6
 21
-65.6
  0
LINE
  8
0
 10
-40.6
 20
-65.6
 11
-40.6
 21
-57.8146
  0
LINE
  8
0
 10
-40.6
 20
-57.8146
 11
-43.625
 21
-57.8146
  0
LINE
  8
0
 10
-43.625
 20
-57.8146
 11
-45.25
 21
-55
  0
LINE
  8
0
 10
-45.25
 20
-55
 11
-43.625
 21
-52.1854
  0
LINE
  8
0
 10
-43.625
 20
-52.1854
 11
-40.6
 21
-52.1854
  0
LINE
  8
0
 10
-40.6
 20
-52.1854
 11
-40.6
 21
72.1854
  0
LINE
  8
0
 10
-40.6
 20
72.1854
 11
-43.625
 21
72.1854
  0
LINE
  8
0
 10
-43.625
 20
72.1854
 11
-45.25
 21
75
  0
LINE
  8
0
 10
-45.25
 20
75
 11
-43.625
 21
77.8146
  0
LINE
  8
0
 10
-43.625
 20
77.8146
 11
-40.6
 21
77.8146
  0
LINE
  8
0
 10
-40.6
 20
77.8146
 11
-40.6
 21
85.6
  0
LINE
  8
0
 10
-40.6
 20
85.6
 11
-20
 21
85.6
  0
LINE
  8
0
 10
-20
 20
85.6
 11
-20
 21
94.4
  0
LINE
  8
0
 10
-20
 20
94.4
 11
-45
 21
94.4
  0
LINE
  8
0
 10
-45
 20
94.4
 11
-46.3597
 21
94.1846
  0
LINE
  8
0
 10
-46.3597
 20
94.1846
 11
-47.5863
 21
93.5597
  0
LINE
  8
0
 10
-47.5863
 20
93.5597
 11
-48.5597
 21
92.5863
  0
LINE
  8
0
 10
-48.5597
 20
92.5863
 11
-49.1846
 21
91.3597
  0
LINE
  8
0
 10
-49.1846
 20
91.3597
 11
-49.4
 21
90
  0
LINE
  8
0
 10
-49.4
 20
90
 11
-49.4
 21
-70
  0
LINE
  8
0
 10
-49.4
 20
-70
 11
-49.1846
 21
-71.3597
  0
LINE
  8
0
 10
-49.1846
 20
-71.3597
 11
-48.5597
 21
-72.5863
  0
LINE
  8
0
 10
-48.5597
 20
-72.5863
 11
-47.5863
 21
-73.5597
  0
LINE
  8
0
 10
-47.5863
 20
-73.5597
 11
-46.3597
 21
-74.1846
  0
LINE
  8
0
 10
-46.3597
 20
-74.1846
 11
-45
 21
-74.4
  0
LINE
  8
0
 10
-45
 20
-74.4
 11
45
 21
-74.4
  0
LINE
  8
0
 10
45
 20
-74.4
 11
46.3597
 21
-74.1846
  0
ENDSEC
  0
SECTION
  2
OBJECTS
  0
DICTIONARY
  0
ENDSEC
  0
EOF
